<svg xmlns="http://www.w3.org/2000/svg" viewBox="5 5 38 38" height="212" width="212" fill="none" style="background-color:#fff">
    <path fill-rule="evenodd" clip-rule="evenodd" d="M17.822 21.678Q19.143 23 21 23t3.178-1.322T25.5 18.5t-1.322-3.178Q22.857 14 21 14t-3.178 1.322T16.5 18.5t1.322 3.178M12.66 32.34q.66.66 1.589.661h13.5q.928 0 1.59-.66.66-.662.66-1.59v-.9q0-.956-.492-1.758A3.3 3.3 0 0 0 28.2 26.87a16.7 16.7 0 0 0-3.544-1.308q-1.8-.435-3.656-.436-1.856 0-3.656.436T13.8 26.869a3.3 3.3 0 0 0-1.308 1.223A3.3 3.3 0 0 0 12 29.85v.9q0 .928.66 1.59m21.09.66h-2.392A4.16 4.16 0 0 0 32 30.75v-.9c0-1-.263-1.95-.788-2.804a5.3 5.3 0 0 0-1.675-1.713q.563.093 1.119.228 1.8.436 3.544 1.308.815.422 1.308 1.223.492.802.492 1.758v.9q0 .928-.661 1.59-.66.66-1.59.66M27 23a4.6 4.6 0 0 1-1.18-.147c1.105-1.211 1.68-2.692 1.68-4.353s-.575-3.142-1.68-4.353A4.6 4.6 0 0 1 27 14q1.856 0 3.178 1.322Q31.5 16.643 31.5 18.5t-1.322 3.178T27 23" fill="#ccc"/>
</svg>